HIERARCHY
ROOT Hips
{
  OFFSET 54.5129 85.9637 50.2761
  CHANNELS 6 Xposition Yposition Zposition Zrotation Xrotation Yrotation
  JOINT spine
  {
    OFFSET 0 6.3926 0.367606
    CHANNELS 3 Zrotation Xrotation Yrotation
    JOINT spine1
    {
      OFFSET 0 9.17611 0
      CHANNELS 3 Zrotation Xrotation Yrotation
      JOINT spine2
      {
        OFFSET 0 8.79238 0
        CHANNELS 3 Zrotation Xrotation Yrotation
        JOINT Neck
        {
          OFFSET 0 22.5737 1.07624
          CHANNELS 3 Zrotation Xrotation Yrotation
          JOINT Head
          {
            OFFSET 0 6.82011 0
            CHANNELS 3 Zrotation Xrotation Yrotation
            End Site
            {
              OFFSET 0 16.5085 -5.44427
            }
          }
        }
        JOINT RightShoulder
        {
          OFFSET -3.70221 9.49509 -0.515508
          CHANNELS 3 Zrotation Xrotation Yrotation
          JOINT RightArm
          {
            OFFSET 0 12.4537 0
            CHANNELS 3 Zrotation Xrotation Yrotation
            JOINT RightArmRoll
            {
              OFFSET 0 6.28686 0
              CHANNELS 3 Zrotation Xrotation Yrotation
              JOINT RightForeArm
              {
                OFFSET 0 18.3114 0
                CHANNELS 3 Zrotation Xrotation Yrotation
                JOINT RightForeArmRoll
                {
                  OFFSET 0 7.05482 0
                  CHANNELS 3 Zrotation Xrotation Yrotation
                  JOINT RightHand
                  {
                    OFFSET 0 14.1575 0
                    CHANNELS 3 Zrotation Xrotation Yrotation
                    End Site
                    {
                      OFFSET 0 0 0
                    }
                  }
                }
              }
            }
          }
        }
        JOINT LeftShoulder
        {
          OFFSET 3.70221 9.49509 -0.515508
          CHANNELS 3 Zrotation Xrotation Yrotation
          JOINT LeftArm
          {
            OFFSET 0 12.4537 0
            CHANNELS 3 Zrotation Xrotation Yrotation
            JOINT LeftArmRoll
            {
              OFFSET 0 6.28686 0
              CHANNELS 3 Zrotation Xrotation Yrotation
              JOINT LeftForeArm
              {
                OFFSET 0 18.3114 0
                CHANNELS 3 Zrotation Xrotation Yrotation
                JOINT LeftForeArmRoll
                {
                  OFFSET 0 7.05482 0
                  CHANNELS 3 Zrotation Xrotation Yrotation
                  JOINT LeftHand
                  {
                    OFFSET 0 14.1575 0
                    CHANNELS 3 Zrotation Xrotation Yrotation
                    End Site
                    {
                      OFFSET 0 0 0
                    }
                  }
                }
              }
            }
          }
        }
      }
    }
  }
  JOINT RightUpLeg
  {
    OFFSET -5.66616 -1.03903 -0.87161
    CHANNELS 3 Zrotation Xrotation Yrotation
    JOINT RightUpLegRoll
    {
      OFFSET 0 16.6005 0
      CHANNELS 3 Zrotation Xrotation Yrotation
      JOINT RightLeg
      {
        OFFSET 0 -20.5572 0
        CHANNELS 3 Zrotation Xrotation Yrotation
        JOINT RightLegRoll
        {
          OFFSET 0 20.6244 0
          CHANNELS 3 Zrotation Xrotation Yrotation
          JOINT RightFoot
          {
            OFFSET 0 17.1664 0
            CHANNELS 3 Zrotation Xrotation Yrotation
            JOINT RightToeBase
            {
              OFFSET 0 14.3502 0
              CHANNELS 3 Zrotation Xrotation Yrotation
              End Site
              {
                OFFSET 0.00608252 6.9497 -0.801061
              }
            }
          }
        }
      }
    }
  }
  JOINT LeftUpLeg
  {
    OFFSET 5.66616 -1.03903 -0.87161
    CHANNELS 3 Zrotation Xrotation Yrotation
    JOINT LeftUpLegRoll
    {
      OFFSET 0 16.6006 0
      CHANNELS 3 Zrotation Xrotation Yrotation
      JOINT LeftLeg
      {
        OFFSET 0 20.5571 0
        CHANNELS 3 Zrotation Xrotation Yrotation
        JOINT LeftLegRoll
        {
          OFFSET 0 20.8151 0
          CHANNELS 3 Zrotation Xrotation Yrotation
          JOINT LeftFoot
          {
            OFFSET 0 16.9757 0
            CHANNELS 3 Zrotation Xrotation Yrotation
            JOINT LeftToeBase
            {
              OFFSET 0 14.3502 0
              CHANNELS 3 Zrotation Xrotation Yrotation
              End Site
              {
                OFFSET -0.0272592 6.9497 -0.801061
              }
            }
          }
        }
      }
    }
  }
}
MOTION
Frames: 6
Frame Time: 0.00208333
52.4347 57.145 8.07538 -0.0715966 -7.5424 2.13423 -0.354033 -2.41547 -0.107024 -0.734175 -0.831128 -0.177883 -0.732114 0.813865 -0.165614 12.0451 31.3737 -5.75064 -7.8138 -7.63488 -1.32405 80.1804 -2.92554 -3.54062 91.371 15.1285 -24.9079 -1.07285e-006 -7.06942e-010 -2.24599e-006 22.94 57.5877 -12.2223 -4.00533e-006 1.17358e-005 -2.99999 8.02884 -4.95131 0.697532 -75.2797 3.70433 0.280905 -89.7398 13.2616 14.2166 5.45675e-006 -1.9761e-007 4.85759e-006 -25.6987 50.4838 15.1281 -1.556e-006 -8.11163e-006 3 -8.02892 -4.95099 -0.697421 156.014 68.3271 26.4602 180 7.01574e-015 179.046 172.075 69.3401 -176.762 -3.08558e-007 2.84348e-007 1.1018 -17.8715 65.9539 17.9524 8.12906 25.2331 -3.48457 -156.999 69.7923 -21.1634 4.5067e-006 -1.99009e-005 -1.08238 5.05175 -72.5154 5.49577 2.21058e-006 -1.62703e-006 -1.36777 16.2063 63.5526 -16.4239 -8.1366 25.2343 3.4855 
52.4577 57.0627 8.17761 -0.0727188 -7.55343 2.12343 -0.353131 -2.41102 -0.111003 -0.73076 -0.821954 -0.186243 -0.728601 0.823039 -0.174032 11.9521 31.3424 -5.69437 -7.75482 -7.60415 -1.30316 80.1653 -2.88022 -3.52172 91.3786 15.1205 -24.894 -1.07286e-006 -7.06945e-010 -2.24599e-006 22.9344 57.5941 -12.2239 -4.00533e-006 1.17358e-005 -2.99999 8.02884 -4.95131 0.697532 -75.2687 3.62966 0.311755 -89.7677 13.2935 14.2452 5.45675e-006 -1.9761e-007 4.85759e-006 -25.7048 50.4675 15.1244 -1.556e-006 -8.11163e-006 3 -8.02892 -4.95099 -0.697421 156.05 68.3252 26.4234 180 7.01574e-015 179.046 172.078 69.3498 -176.763 -3.08558e-007 2.84348e-007 1.1018 -17.8737 65.9604 17.9571 8.12906 25.2331 -3.48457 -156.942 69.7805 -21.2285 4.5067e-006 -1.99009e-005 -1.08238 5.04182 -72.5321 5.48982 2.21058e-006 -1.62703e-006 -1.36669 16.2007 63.5472 -16.4205 -8.1366 25.2343 3.4855 
52.4489 57.0879 8.14964 -0.0739779 -7.56443 2.11255 -0.352243 -2.40657 -0.115041 -0.727296 -0.812779 -0.194724 -0.725036 0.832216 -0.182571 11.8591 31.3102 -5.63788 -7.69591 -7.57275 -1.28212 80.1502 -2.83454 -3.50271 91.3862 15.1122 -24.8802 -1.07286e-006 -7.06942e-010 -2.24599e-006 22.9289 57.6008 -12.2256 -4.00533e-006 1.17358e-005 -2.99999 8.02884 -4.95131 0.697532 -75.2573 3.55386 0.343057 -89.796 13.3258 14.274 5.45675e-006 -1.9761e-007 4.85759e-006 -25.7109 50.4498 15.1202 -1.556e-006 -8.11163e-006 3 -8.02892 -4.95099 -0.697421 156.087 68.3235 26.3865 180 7.01574e-015 179.046 172.081 69.36 -176.763 -3.08558e-007 2.84348e-007 1.1018 -17.876 65.9671 17.9619 8.12906 25.2331 -3.48457 -156.883 69.7688 -21.2954 4.5067e-006 -1.99009e-005 -1.08238 5.03175 -72.5493 5.48379 2.21058e-006 -1.62703e-006 -1.36557 16.1948 63.5416 -16.4169 -8.1366 25.2343 3.4855 
52.4458 57.1028 8.13946 -0.0753343 -7.57541 2.10161 -0.351363 -2.40213 -0.119121 -0.723797 -0.803601 -0.203288 -0.721435 0.841393 -0.191195 11.7661 31.2774 -5.58126 -7.63705 -7.54088 -1.26098 80.1351 -2.7886 -3.4836 91.3937 15.1035 -24.8664 -1.07286e-006 -7.06939e-010 -2.24599e-006 22.9233 57.6078 -12.2274 -4.00533e-006 1.17358e-005 -2.99999 8.02884 -4.95131 0.697532 -75.2458 3.47726 0.374676 -89.8247 13.3584 14.3027 5.45675e-006 -1.9761e-007 4.85759e-006 -25.7171 50.4312 15.1157 -1.556e-006 -8.11163e-006 3 -8.02892 -4.95099 -0.697421 156.123 68.3219 26.3494 180 7.01574e-015 179.046 172.084 69.3704 -176.764 -3.08558e-007 2.84348e-007 1.1018 -17.8783 65.974 17.9669 8.12906 25.2331 -3.48457 -156.823 69.7573 -21.3636 4.5067e-006 -1.99009e-005 -1.08238 5.02157 -72.5668 5.4777 2.21058e-006 -1.62703e-006 -1.36443 16.1888 63.5357 -16.4133 -8.1366 25.2343 3.4855 
52.4456 57.0936 8.15182 -0.0767481 -7.58638 2.09064 -0.350488 -2.39769 -0.123223 -0.720276 -0.794423 -0.2119 -0.717812 0.850572 -0.199867 11.6731 31.2442 -5.52458 -7.57824 -7.50873 -1.23979 80.1201 -2.74251 -3.46445 91.4013 15.0948 -24.8526 -1.07285e-006 -7.06942e-010 -2.24599e-006 22.9178 57.615 -12.2292 -4.00533e-006 1.17358e-005 -2.99999 8.02884 -4.95131 0.697532 -75.2341 3.40021 0.406473 -89.8537 13.3911 14.3315 5.45675e-006 -1.9761e-007 4.85759e-006 -25.7234 50.412 15.111 -1.556e-006 -8.11163e-006 3 -8.02892 -4.95099 -0.697421 156.16 68.3203 26.3123 180 7.01574e-015 179.046 172.087 69.3809 -176.765 -3.08558e-007 2.84348e-007 1.1018 -17.8806 65.981 17.972 8.12906 25.2331 -3.48457 -156.763 69.7458 -21.4325 4.5067e-006 -1.99009e-005 -1.08238 5.01132 -72.5846 5.47157 2.21058e-006 -1.62703e-006 -1.36327 16.1827 63.5298 -16.4095 -8.1366 25.2343 3.4855 
52.439 57.1074 8.14623 -0.0781793 -7.59734 2.07966 -0.349613 -2.39325 -0.127332 -0.716748 -0.785244 -0.220524 -0.714181 0.859751 -0.208551 11.5802 31.2109 -5.46793 -7.51946 -7.47652 -1.21859 80.105 -2.69639 -3.4453 91.4088 15.0859 -24.8388 -1.07285e-006 -7.06939e-010 -2.24599e-006 22.9122 57.6222 -12.2311 -4.00533e-006 1.17358e-005 -2.99999 8.02884 -4.95131 0.697532 -75.2222 3.32304 0.438311 -89.8827 13.4238 14.3603 5.45675e-006 -1.9761e-007 4.85759e-006 -25.7297 50.3927 15.1063 -1.556e-006 -8.11163e-006 3 -8.02892 -4.95099 -0.697421 156.197 68.3188 26.2752 180 7.01574e-015 179.046 172.09 69.3915 -176.765 -3.08558e-007 2.84348e-007 1.1018 -17.883 65.988 17.9771 8.12906 25.2331 -3.48457 -156.702 69.7343 -21.5016 4.5067e-006 -1.99009e-005 -1.08238 5.00105 -72.6024 5.46543 2.21058e-006 -1.62703e-006 -1.3621 16.1765 63.5239 -16.4058 -8.1366 25.2343 3.4855 
